<?xml version="1.0" encoding="UTF-8" standalone="no"?>
<svg
   xmlns:dc="http://purl.org/dc/elements/1.1/"
   xmlns:cc="http://creativecommons.org/ns#"
   xmlns:rdf="http://www.w3.org/1999/02/22-rdf-syntax-ns#"
   xmlns:svg="http://www.w3.org/2000/svg"
   xmlns="http://www.w3.org/2000/svg"
   viewBox="0 0 793.70135 803.34265"
   height="803.34265"
   width="793.70135"
   xml:space="preserve"
   id="svg2"
   version="1.1"><metadata
     id="metadata8"><rdf:RDF><cc:Work
         rdf:about=""><dc:format>image/svg+xml</dc:format><dc:type
           rdf:resource="http://purl.org/dc/dcmitype/StillImage" /></cc:Work></rdf:RDF></metadata><defs
     id="defs6"><linearGradient
       id="linearGradient28"
       spreadMethod="pad"
       gradientTransform="matrix(-433.33337,365.33334,365.33334,433.33337,530.17346,96.148193)"
       gradientUnits="userSpaceOnUse"
       y2="0"
       x2="1"
       y1="0"
       x1="0"><stop
         id="stop24"
         offset="0"
         style="stop-opacity:1;stop-color:#47b0e4" /><stop
         id="stop26"
         offset="1"
         style="stop-opacity:1;stop-color:#60c4eb" /></linearGradient><clipPath
       id="clipPath38"
       clipPathUnits="userSpaceOnUse"><path
         id="path36"
         d="M 0,602.507 H 595.276 V 0 H 0 Z" /></clipPath><clipPath
       id="clipPath54"
       clipPathUnits="userSpaceOnUse"><path
         id="path52"
         d="m 128.504,374.431 h 53.417 v -83.754 h -53.417 z" /></clipPath><clipPath
       id="clipPath58"
       clipPathUnits="userSpaceOnUse"><path
         id="path56"
         d="m 128.504,362.559 v -71.882 h 0.051 c 0,23.22 18.823,42.042 42.042,42.042 3.924,0 7.721,-0.539 11.324,-1.544 v 42.612 c -3.413,0.424 -6.888,0.644 -10.416,0.644 -15.722,0 -30.431,-4.336 -43.001,-11.872" /></clipPath><linearGradient
       id="linearGradient70"
       spreadMethod="pad"
       gradientTransform="matrix(53.417053,0,0,-53.417053,128.50375,332.55429)"
       gradientUnits="userSpaceOnUse"
       y2="0"
       x2="1"
       y1="0"
       x1="0"><stop
         id="stop64"
         offset="0"
         style="stop-opacity:0.8;stop-color:#ffffff" /><stop
         id="stop66"
         offset="0.888268"
         style="stop-opacity:1;stop-color:#ffffff" /><stop
         id="stop68"
         offset="1"
         style="stop-opacity:1;stop-color:#ffffff" /></linearGradient><mask
       id="mask72"
       height="1"
       width="1"
       y="0"
       x="0"
       maskUnits="userSpaceOnUse"><g
         id="g82"><g
           id="g80"><g
             id="g78"><g
               id="g76"><path
                 id="path74"
                 style="fill:url(#linearGradient70);stroke:none"
                 d="M -32768,32767 H 32767 V -32768 H -32768 Z" /></g></g></g></g></mask><linearGradient
       id="linearGradient90"
       spreadMethod="pad"
       gradientTransform="matrix(53.417053,0,0,-53.417053,128.50375,332.55429)"
       gradientUnits="userSpaceOnUse"
       y2="0"
       x2="1"
       y1="0"
       x1="0"><stop
         id="stop84"
         offset="0"
         style="stop-opacity:1;stop-color:#2b2b2a" /><stop
         id="stop86"
         offset="0.888268"
         style="stop-opacity:1;stop-color:#ffffff" /><stop
         id="stop88"
         offset="1"
         style="stop-opacity:1;stop-color:#ffffff" /></linearGradient><clipPath
       id="clipPath116"
       clipPathUnits="userSpaceOnUse"><path
         id="path114"
         d="M 293.581,290.587 H 334.74 V 209.922 H 293.581 Z" /></clipPath><clipPath
       id="clipPath120"
       clipPathUnits="userSpaceOnUse"><path
         id="path118"
         d="m 334.36,209.922 c 0.062,13.742 0.182,33.899 0.38,44.373 -12.386,7.33 -20.68,20.824 -20.772,36.28 -0.001,0.004 -0.003,0.008 -0.004,0.012 0,-20.933 -7.688,-40.065 -20.383,-54.747 10.607,-12.271 24.72,-21.426 40.779,-25.918" /></clipPath><linearGradient
       id="linearGradient132"
       spreadMethod="pad"
       gradientTransform="matrix(41.294224,1.2306225,1.2306225,-41.294224,296.30191,249.42421)"
       gradientUnits="userSpaceOnUse"
       y2="0"
       x2="1"
       y1="0"
       x1="0"><stop
         id="stop126"
         offset="0"
         style="stop-opacity:0.8;stop-color:#ffffff" /><stop
         id="stop128"
         offset="0.888268"
         style="stop-opacity:1;stop-color:#ffffff" /><stop
         id="stop130"
         offset="1"
         style="stop-opacity:1;stop-color:#ffffff" /></linearGradient><mask
       id="mask134"
       height="1"
       width="1"
       y="0"
       x="0"
       maskUnits="userSpaceOnUse"><g
         id="g144"><g
           id="g142"><g
             id="g140"><g
               id="g138"><path
                 id="path136"
                 style="fill:url(#linearGradient132);stroke:none"
                 d="M -32768,32767 H 32767 V -32768 H -32768 Z" /></g></g></g></g></mask><linearGradient
       id="linearGradient152"
       spreadMethod="pad"
       gradientTransform="matrix(41.294224,1.2306225,1.2306225,-41.294224,296.30191,249.42421)"
       gradientUnits="userSpaceOnUse"
       y2="0"
       x2="1"
       y1="0"
       x1="0"><stop
         id="stop146"
         offset="0"
         style="stop-opacity:1;stop-color:#2b2b2a" /><stop
         id="stop148"
         offset="0.888268"
         style="stop-opacity:1;stop-color:#ffffff" /><stop
         id="stop150"
         offset="1"
         style="stop-opacity:1;stop-color:#ffffff" /></linearGradient><clipPath
       id="clipPath178"
       clipPathUnits="userSpaceOnUse"><path
         id="path176"
         d="m 335.802,289.432 h 40.753 v -40.989 h -40.753 z" /></clipPath><clipPath
       id="clipPath182"
       clipPathUnits="userSpaceOnUse"><path
         id="path180"
         d="m 335.802,253.686 v 35.746 h 40.753 V 278.188 261.53 248.443 h -20.36 c -7.408,0 -14.355,1.903 -20.393,5.243" /></clipPath><linearGradient
       id="linearGradient194"
       spreadMethod="pad"
       gradientTransform="matrix(0,40.988331,40.988331,0,356.17844,248.44327)"
       gradientUnits="userSpaceOnUse"
       y2="0"
       x2="1"
       y1="0"
       x1="0"><stop
         id="stop188"
         offset="0"
         style="stop-opacity:0.8;stop-color:#ffffff" /><stop
         id="stop190"
         offset="0.888268"
         style="stop-opacity:1;stop-color:#ffffff" /><stop
         id="stop192"
         offset="1"
         style="stop-opacity:1;stop-color:#ffffff" /></linearGradient><mask
       id="mask196"
       height="1"
       width="1"
       y="0"
       x="0"
       maskUnits="userSpaceOnUse"><g
         id="g206"><g
           id="g204"><g
             id="g202"><g
               id="g200"><path
                 id="path198"
                 style="fill:url(#linearGradient194);stroke:none"
                 d="M -32768,32767 H 32767 V -32768 H -32768 Z" /></g></g></g></g></mask><linearGradient
       id="linearGradient214"
       spreadMethod="pad"
       gradientTransform="matrix(0,40.988331,40.988331,0,356.17844,248.44327)"
       gradientUnits="userSpaceOnUse"
       y2="0"
       x2="1"
       y1="0"
       x1="0"><stop
         id="stop208"
         offset="0"
         style="stop-opacity:1;stop-color:#2b2b2a" /><stop
         id="stop210"
         offset="0.888268"
         style="stop-opacity:1;stop-color:#ffffff" /><stop
         id="stop212"
         offset="1"
         style="stop-opacity:1;stop-color:#ffffff" /></linearGradient><clipPath
       id="clipPath240"
       clipPathUnits="userSpaceOnUse"><path
         id="path238"
         d="m 335.802,209.532 h 40.753 v -30.568 h -40.753 z" /></clipPath><clipPath
       id="clipPath244"
       clipPathUnits="userSpaceOnUse"><path
         id="path242"
         d="m 356.966,206.832 c -7.312,0 -14.404,0.94 -21.164,2.7 v -30.568 l 40.753,0.654 v 27.214 z" /></clipPath><linearGradient
       id="linearGradient256"
       spreadMethod="pad"
       gradientTransform="matrix(0,-30.56802,-30.56802,0,356.17844,209.53204)"
       gradientUnits="userSpaceOnUse"
       y2="0"
       x2="1"
       y1="0"
       x1="0"><stop
         id="stop250"
         offset="0"
         style="stop-opacity:0.8;stop-color:#ffffff" /><stop
         id="stop252"
         offset="0.888268"
         style="stop-opacity:1;stop-color:#ffffff" /><stop
         id="stop254"
         offset="1"
         style="stop-opacity:1;stop-color:#ffffff" /></linearGradient><mask
       id="mask258"
       height="1"
       width="1"
       y="0"
       x="0"
       maskUnits="userSpaceOnUse"><g
         id="g268"><g
           id="g266"><g
             id="g264"><g
               id="g262"><path
                 id="path260"
                 style="fill:url(#linearGradient256);stroke:none"
                 d="M -32768,32767 H 32767 V -32768 H -32768 Z" /></g></g></g></g></mask><linearGradient
       id="linearGradient276"
       spreadMethod="pad"
       gradientTransform="matrix(0,-30.56802,-30.56802,0,356.17844,209.53204)"
       gradientUnits="userSpaceOnUse"
       y2="0"
       x2="1"
       y1="0"
       x1="0"><stop
         id="stop270"
         offset="0"
         style="stop-opacity:1;stop-color:#2b2b2a" /><stop
         id="stop272"
         offset="0.888268"
         style="stop-opacity:1;stop-color:#ffffff" /><stop
         id="stop274"
         offset="1"
         style="stop-opacity:1;stop-color:#ffffff" /></linearGradient><clipPath
       id="clipPath302"
       clipPathUnits="userSpaceOnUse"><path
         id="path300"
         d="m 170.597,296.882 h 102.615 v -90.05 H 170.597 Z" /></clipPath><clipPath
       id="clipPath306"
       clipPathUnits="userSpaceOnUse"><path
         id="path304"
         d="m 273.211,296.882 v -6.048 c 0,-18.404 -11.631,-34.066 -27.979,-39.926 -14.158,-26.192 -41.864,-43.985 -73.727,-43.985 -0.21,0 -0.419,0.006 -0.629,0.008 -0.092,-0.032 -0.187,-0.068 -0.279,-0.099 h 59.612 c 15.724,0 30.432,4.337 43.002,11.873 z" /></clipPath><linearGradient
       id="linearGradient318"
       spreadMethod="pad"
       gradientTransform="matrix(102.61432,0,0,-102.61432,170.59731,251.8571)"
       gradientUnits="userSpaceOnUse"
       y2="0"
       x2="1"
       y1="0"
       x1="0"><stop
         id="stop312"
         offset="0"
         style="stop-opacity:0.8;stop-color:#ffffff" /><stop
         id="stop314"
         offset="0.888268"
         style="stop-opacity:1;stop-color:#ffffff" /><stop
         id="stop316"
         offset="1"
         style="stop-opacity:1;stop-color:#ffffff" /></linearGradient><mask
       id="mask320"
       height="1"
       width="1"
       y="0"
       x="0"
       maskUnits="userSpaceOnUse"><g
         id="g330"><g
           id="g328"><g
             id="g326"><g
               id="g324"><path
                 id="path322"
                 style="fill:url(#linearGradient318);stroke:none"
                 d="M -32768,32767 H 32767 V -32768 H -32768 Z" /></g></g></g></g></mask><linearGradient
       id="linearGradient338"
       spreadMethod="pad"
       gradientTransform="matrix(102.61432,0,0,-102.61432,170.59731,251.8571)"
       gradientUnits="userSpaceOnUse"
       y2="0"
       x2="1"
       y1="0"
       x1="0"><stop
         id="stop332"
         offset="0"
         style="stop-opacity:1;stop-color:#2b2b2a" /><stop
         id="stop334"
         offset="0.888268"
         style="stop-opacity:1;stop-color:#ffffff" /><stop
         id="stop336"
         offset="1"
         style="stop-opacity:1;stop-color:#ffffff" /></linearGradient></defs><g
     transform="matrix(1.3333333,0,0,-1.3333333,0,803.34267)"
     id="g10"><g
       id="g12"><g
         id="g14"><g
           id="g20"><g
             id="g22"><path
               id="path30"
               style="fill:url(#linearGradient28);stroke:none"
               d="m 24.949,294.158 c 0,-149.315 121.044,-270.359 270.359,-270.359 v 0 c 62.187,0 119.468,20.999 165.144,56.289 v 0 l 58.527,-11.531 -11.201,58.403 c 36.255,46.008 57.889,104.076 57.889,167.198 v 0 c 0,149.314 -121.044,270.359 -270.359,270.359 v 0 C 145.993,564.517 24.949,443.472 24.949,294.158" /></g></g></g></g><g
       id="g32"><g
         clip-path="url(#clipPath38)"
         id="g34"><g
           transform="translate(316.4023,415.0582)"
           id="g40"><path
             id="path42"
             style="fill:#f6e042;fill-opacity:1;fill-rule:nonzero;stroke:none"
             d="m 0,0 c 0,-11.65 -9.444,-21.095 -21.094,-21.095 -11.651,0 -21.095,9.445 -21.095,21.095 0,11.65 9.444,21.095 21.095,21.095 C -9.444,21.095 0,11.65 0,0" /></g><g
           transform="translate(418.6484,248.5445)"
           id="g44"><path
             id="path46"
             style="fill:#ffffff;fill-opacity:1;fill-rule:nonzero;stroke:none"
             d="m 0,0 v 0 h -42.042 v 42.042 c 0,23.219 18.822,42.042 42.042,42.042 23.22,0 42.042,-18.823 42.042,-42.042 C 42.042,18.823 23.22,0 0,0 m -248.051,0.09 c -3.117,0 -6.154,0.343 -9.078,0.986 -15.982,3.819 -28.717,16.563 -32.119,32.628 -0.554,2.723 -0.845,5.542 -0.845,8.429 0,23.219 18.822,42.042 42.042,42.042 23.219,0 42.042,-18.823 42.042,-42.042 0,-23.22 -18.823,-42.043 -42.042,-42.043 M 2.68,125.774 c -0.57,0.072 -1.159,0.113 -1.772,0.113 -46.257,0 -83.755,-37.498 -83.755,-83.754 0,-0.018 10e-4,-0.035 10e-4,-0.053 0,-0.013 -10e-4,-0.026 -10e-4,-0.038 V 5.141 c -13.043,7.215 -21.837,21.145 -21.837,37.149 v 12.242 16.657 31.921 c 0,11.253 -9.123,20.376 -20.377,20.376 v 0 c -11.254,0 -20.376,-9.123 -20.376,-20.376 V 71.189 54.532 42.29 c 0,-18.404 -11.631,-34.067 -27.98,-39.926 6.396,11.831 10.028,25.375 10.028,39.769 0,46.256 -37.498,83.754 -83.754,83.754 -15.723,0 -30.431,-4.336 -43.002,-11.872 v 53.217 c 0,11.254 -9.123,20.376 -20.376,20.376 -11.254,0 -20.376,-9.122 -20.376,-20.376 V 42.133 c 0,-0.012 0,-0.026 0,-0.038 0,-0.018 0,-0.035 0,-0.053 0,-45.963 37.025,-83.272 82.877,-83.743 -0.01,-0.004 -0.021,-0.007 -0.031,-0.011 h 59.612 c 25.323,0 48.02,11.238 63.378,29 10.923,-12.633 25.561,-21.964 42.214,-26.301 v -44.044 c 0,-11.254 9.123,-20.377 20.377,-20.377 11.253,0 20.376,9.123 20.376,20.377 v 41.345 H 0.908 c 46.256,0 83.754,37.498 83.754,83.754 0,45.664 -36.544,82.789 -81.982,83.732" /></g><g
           id="g48"><g
             id="g50" /><g
             id="g108"><g
               style="opacity:0.5"
               id="g106"
               clip-path="url(#clipPath54)"><g
                 id="g104"><g
                   id="g102"
                   clip-path="url(#clipPath58)"><g
                     id="g100"><g
                       id="g92" /><g
                       id="g98"
                       mask="url(#mask72)"><g
                         id="g96"><path
                           id="path94"
                           style="fill:url(#linearGradient90);stroke:none"
                           d="m 128.504,362.559 v -71.882 h 0.051 c 0,23.22 18.823,42.042 42.042,42.042 3.924,0 7.721,-0.539 11.324,-1.544 v 42.612 c -3.413,0.424 -6.888,0.644 -10.416,0.644 -15.722,0 -30.431,-4.336 -43.001,-11.872" /></g></g></g></g></g></g></g></g><g
           id="g110"><g
             id="g112" /><g
             id="g170"><g
               style="opacity:0.5"
               id="g168"
               clip-path="url(#clipPath116)"><g
                 id="g166"><g
                   id="g164"
                   clip-path="url(#clipPath120)"><g
                     id="g162"><g
                       id="g154" /><g
                       id="g160"
                       mask="url(#mask134)"><g
                         id="g158"><path
                           id="path156"
                           style="fill:url(#linearGradient152);stroke:none"
                           d="m 334.36,209.922 c 0.062,13.742 0.182,33.899 0.38,44.373 -12.386,7.33 -20.68,20.824 -20.772,36.28 -0.001,0.004 -0.003,0.008 -0.004,0.012 0,-20.933 -7.688,-40.065 -20.383,-54.747 10.607,-12.271 24.72,-21.426 40.779,-25.918" /></g></g></g></g></g></g></g></g><g
           id="g172"><g
             id="g174" /><g
             id="g232"><g
               style="opacity:0.39999402"
               id="g230"
               clip-path="url(#clipPath178)"><g
                 id="g228"><g
                   id="g226"
                   clip-path="url(#clipPath182)"><g
                     id="g224"><g
                       id="g216" /><g
                       id="g222"
                       mask="url(#mask196)"><g
                         id="g220"><path
                           id="path218"
                           style="fill:url(#linearGradient214);stroke:none"
                           d="m 335.802,253.686 v 35.746 h 40.753 V 278.188 261.53 248.443 h -20.36 c -7.408,0 -14.355,1.903 -20.393,5.243" /></g></g></g></g></g></g></g></g><g
           id="g234"><g
             id="g236" /><g
             id="g294"><g
               style="opacity:0.39999402"
               id="g292"
               clip-path="url(#clipPath240)"><g
                 id="g290"><g
                   id="g288"
                   clip-path="url(#clipPath244)"><g
                     id="g286"><g
                       id="g278" /><g
                       id="g284"
                       mask="url(#mask258)"><g
                         id="g282"><path
                           id="path280"
                           style="fill:url(#linearGradient276);stroke:none"
                           d="m 356.966,206.832 c -7.312,0 -14.404,0.94 -21.164,2.7 v -30.568 l 40.753,0.654 v 27.214 z" /></g></g></g></g></g></g></g></g><g
           id="g296"><g
             id="g298" /><g
             id="g356"><g
               style="opacity:0.5"
               id="g354"
               clip-path="url(#clipPath302)"><g
                 id="g352"><g
                   id="g350"
                   clip-path="url(#clipPath306)"><g
                     id="g348"><g
                       id="g340" /><g
                       id="g346"
                       mask="url(#mask320)"><g
                         id="g344"><path
                           id="path342"
                           style="fill:url(#linearGradient338);stroke:none"
                           d="m 273.211,296.882 v -6.048 c 0,-18.404 -11.631,-34.066 -27.979,-39.926 -14.158,-26.192 -41.864,-43.985 -73.727,-43.985 -0.21,0 -0.419,0.006 -0.629,0.008 -0.092,-0.032 -0.187,-0.068 -0.279,-0.099 h 59.612 c 15.724,0 30.432,4.337 43.002,11.873 z" /></g></g></g></g></g></g></g></g></g></g></g></svg>